<?xml version="1.0" encoding="UTF-8" standalone="no"?>
<!-- Created with Inkscape (http://www.inkscape.org/) -->

<svg
   width="250"
   height="125"
   viewBox="0 0 66.145832 33.072914"
   version="1.1"
   id="svg1046"
   inkscape:version="1.2.2 (b0a84865, 2022-12-01)"
   sodipodi:docname="da logo with text.svg"
   inkscape:export-filename="da logo no text.png"
   inkscape:export-xdpi="307.20001"
   inkscape:export-ydpi="307.20001"
   xmlns:inkscape="http://www.inkscape.org/namespaces/inkscape"
   xmlns:sodipodi="http://sodipodi.sourceforge.net/DTD/sodipodi-0.dtd"
   xmlns="http://www.w3.org/2000/svg"
   xmlns:svg="http://www.w3.org/2000/svg">
  <sodipodi:namedview
     id="namedview1048"
     pagecolor="#ffffff"
     bordercolor="#666666"
     borderopacity="1.0"
     inkscape:showpageshadow="2"
     inkscape:pageopacity="1"
     inkscape:pagecheckerboard="0"
     inkscape:deskcolor="#d1d1d1"
     inkscape:document-units="mm"
     showgrid="false"
     inkscape:zoom="3.7466667"
     inkscape:cx="150"
     inkscape:cy="62.588968"
     inkscape:window-width="1567"
     inkscape:window-height="1003"
     inkscape:window-x="233"
     inkscape:window-y="61"
     inkscape:window-maximized="0"
     inkscape:current-layer="layer1" />
  <defs
     id="defs1043">
    <clipPath
       clipPathUnits="userSpaceOnUse"
       id="clipPath164">
      <path
         d="M 0,0 H 841.89 V 595.276 H 0 Z"
         id="path162" />
    </clipPath>
    <linearGradient
       x1="0"
       y1="0"
       x2="1"
       y2="0"
       gradientUnits="userSpaceOnUse"
       gradientTransform="matrix(8.5106649,27.15756,27.15756,-8.5106649,734.84193,298.80278)"
       spreadMethod="pad"
       id="linearGradient192">
      <stop
         style="stop-opacity:1;stop-color:#ffffff"
         offset="0"
         id="stop186" />
      <stop
         style="stop-opacity:1;stop-color:#ffffff"
         offset="0.25"
         id="stop188" />
      <stop
         style="stop-opacity:1;stop-color:#7faedb"
         offset="1"
         id="stop190" />
    </linearGradient>
    <linearGradient
       x1="0"
       y1="0"
       x2="1"
       y2="0"
       gradientUnits="userSpaceOnUse"
       gradientTransform="matrix(-31.588238,13.019729,13.019729,31.588238,718.20048,292.57983)"
       spreadMethod="pad"
       id="linearGradient214">
      <stop
         style="stop-opacity:1;stop-color:#ffffff"
         offset="0"
         id="stop208" />
      <stop
         style="stop-opacity:1;stop-color:#ffffff"
         offset="0.25"
         id="stop210" />
      <stop
         style="stop-opacity:1;stop-color:#7faedb"
         offset="1"
         id="stop212" />
    </linearGradient>
    <linearGradient
       x1="0"
       y1="0"
       x2="1"
       y2="0"
       gradientUnits="userSpaceOnUse"
       gradientTransform="matrix(-1.5344317,30.290111,30.290111,1.5344317,730.80181,300.5521)"
       spreadMethod="pad"
       id="linearGradient236">
      <stop
         style="stop-opacity:1;stop-color:#ffffff"
         offset="0"
         id="stop230" />
      <stop
         style="stop-opacity:1;stop-color:#ffffff"
         offset="0.262637"
         id="stop232" />
      <stop
         style="stop-opacity:1;stop-color:#7faedb"
         offset="1"
         id="stop234" />
    </linearGradient>
    <linearGradient
       x1="0"
       y1="0"
       x2="1"
       y2="0"
       gradientUnits="userSpaceOnUse"
       gradientTransform="matrix(25.102844,0,0,-25.102844,740.54225,286.35268)"
       spreadMethod="pad"
       id="linearGradient258">
      <stop
         style="stop-opacity:1;stop-color:#ffffff"
         offset="0"
         id="stop252" />
      <stop
         style="stop-opacity:1;stop-color:#ffffff"
         offset="0.25"
         id="stop254" />
      <stop
         style="stop-opacity:1;stop-color:#7faedb"
         offset="1"
         id="stop256" />
    </linearGradient>
    <linearGradient
       x1="0"
       y1="0"
       x2="1"
       y2="0"
       gradientUnits="userSpaceOnUse"
       gradientTransform="matrix(-10.747438,30.862442,30.862442,10.747438,726.61248,300.5945)"
       spreadMethod="pad"
       id="linearGradient280">
      <stop
         style="stop-opacity:1;stop-color:#ffffff"
         offset="0"
         id="stop274" />
      <stop
         style="stop-opacity:1;stop-color:#ffffff"
         offset="0.25"
         id="stop276" />
      <stop
         style="stop-opacity:1;stop-color:#7faedb"
         offset="1"
         id="stop278" />
    </linearGradient>
    <linearGradient
       x1="0"
       y1="0"
       x2="1"
       y2="0"
       gradientUnits="userSpaceOnUse"
       gradientTransform="matrix(22.684114,11.112832,11.112832,-22.684114,740.24928,291.93606)"
       spreadMethod="pad"
       id="linearGradient302">
      <stop
         style="stop-opacity:1;stop-color:#ffffff"
         offset="0"
         id="stop296" />
      <stop
         style="stop-opacity:1;stop-color:#ffffff"
         offset="0.25"
         id="stop298" />
      <stop
         style="stop-opacity:1;stop-color:#7faedb"
         offset="1"
         id="stop300" />
    </linearGradient>
    <linearGradient
       x1="0"
       y1="0"
       x2="1"
       y2="0"
       gradientUnits="userSpaceOnUse"
       gradientTransform="matrix(-19.051189,27.927994,27.927994,19.051189,722.74476,298.94747)"
       spreadMethod="pad"
       id="linearGradient324">
      <stop
         style="stop-opacity:1;stop-color:#ffffff"
         offset="0"
         id="stop318" />
      <stop
         style="stop-opacity:1;stop-color:#ffffff"
         offset="0.25"
         id="stop320" />
      <stop
         style="stop-opacity:1;stop-color:#7faedb"
         offset="1"
         id="stop322" />
    </linearGradient>
    <linearGradient
       x1="0"
       y1="0"
       x2="1"
       y2="0"
       gradientUnits="userSpaceOnUse"
       gradientTransform="matrix(17.045948,20.314569,20.314569,-17.045948,737.77649,295.84109)"
       spreadMethod="pad"
       id="linearGradient346">
      <stop
         style="stop-opacity:1;stop-color:#ffffff"
         offset="0"
         id="stop340" />
      <stop
         style="stop-opacity:1;stop-color:#ffffff"
         offset="0.25"
         id="stop342" />
      <stop
         style="stop-opacity:1;stop-color:#7faedb"
         offset="1"
         id="stop344" />
    </linearGradient>
    <linearGradient
       x1="0"
       y1="0"
       x2="1"
       y2="0"
       gradientUnits="userSpaceOnUse"
       gradientTransform="matrix(-26.991007,20.861019,20.861019,26.991007,719.8848,296.34016)"
       spreadMethod="pad"
       id="linearGradient368">
      <stop
         style="stop-opacity:1;stop-color:#ffffff"
         offset="0"
         id="stop362" />
      <stop
         style="stop-opacity:1;stop-color:#ffffff"
         offset="0.25"
         id="stop364" />
      <stop
         style="stop-opacity:1;stop-color:#7faedb"
         offset="1"
         id="stop366" />
    </linearGradient>
    <clipPath
       clipPathUnits="userSpaceOnUse"
       id="clipPath378">
      <path
         d="M 0,0 H 841.89 V 595.276 H 0 Z"
         id="path376" />
    </clipPath>
    <clipPath
       clipPathUnits="userSpaceOnUse"
       id="clipPath406">
      <path
         d="M 0,0 H 841.89 V 595.276 H 0 Z"
         id="path404" />
    </clipPath>
    <clipPath
       clipPathUnits="userSpaceOnUse"
       id="clipPath422">
      <path
         d="m 692.87,268.46 c -0.41,-0.208 -0.81,-0.423 -1.197,-0.648 v 0 c 1.921,-2.823 4.173,-5.403 6.698,-7.681 v 0 c 0.935,-0.844 1.908,-1.647 2.917,-2.405 v 0 c 18.001,12.034 53.501,3.714 61.053,14.259 v 0 c -11.848,0.617 -23.391,1.205 -33.911,1.205 v 0 c -14.39,0 -26.863,-1.1 -35.56,-4.73"
         id="path420" />
    </clipPath>
    <clipPath
       clipPathUnits="userSpaceOnUse"
       id="clipPath434">
      <path
         d="M 0,0 H 841.89 V 595.276 H 0 Z"
         id="path432" />
    </clipPath>
    <clipPath
       clipPathUnits="userSpaceOnUse"
       id="clipPath446">
      <path
         d="m 705.3,255.109 c 6.325,-3.701 13.696,-5.787 21.566,-5.675 v 0 l 0.08,0.001 c 12.826,0.207 25.017,5.872 32.189,16.482 v 0 c -8.72,-5.288 -44.447,-3.167 -53.835,-10.808"
         id="path444" />
    </clipPath>
    <clipPath
       clipPathUnits="userSpaceOnUse"
       id="clipPath8579">
      <path
         d="M 0,0 H 841.89 V 595.276 H 0 Z"
         id="path8577" />
    </clipPath>
  </defs>
  <g
     inkscape:label="Layer 1"
     inkscape:groupmode="layer"
     id="layer1"
     transform="translate(-89.234998,-133.10044)">
    <g
       id="g16917">
      <g
         id="g158"
         transform="matrix(0.35277777,0,0,-0.35277777,-150.00374,252.13895)">
        <g
           id="g160"
           clip-path="url(#clipPath164)">
          <g
             id="g166"
             transform="translate(681.8933,291.7693)">
            <path
               d="M 0,0 C 0,26.38 17.633,42.44 41.268,42.44 65.794,42.44 85.962,18.711 86.271,-2.188 86.691,-29.592 66.743,-44.551 45.118,-44.86 20.201,-45.216 0,-24.775 0,0"
               style="fill:#ffffff;fill-opacity:1;fill-rule:nonzero;stroke:none"
               id="path168" />
          </g>
          <g
             id="g170"
             transform="translate(708.5859,290.7684)">
            <path
               d="m 0,0 c 0,12.063 8.064,19.408 18.872,19.408 11.216,0 20.439,-10.852 20.579,-20.409 0.19,-12.531 -8.929,-19.371 -18.819,-19.513 C 9.237,-20.677 0,-11.329 0,0"
               style="fill:#ffffff;fill-opacity:1;fill-rule:nonzero;stroke:none"
               id="path172" />
          </g>
        </g>
      </g>
      <g
         id="g174"
         transform="matrix(0.35277777,0,0,-0.35277777,-150.00374,252.13895)">
        <g
           id="g176">
          <g
             id="g182">
            <g
               id="g184">
              <path
                 d="m 734.408,299.137 c 0.317,-0.196 0.626,-0.405 0.925,-0.629 v 0 l 10.64,25.579 c -1.625,1.148 -3.326,2.188 -5.089,3.106 v 0 z"
                 style="fill:url(#linearGradient192);stroke:none"
                 id="path194" />
            </g>
          </g>
        </g>
      </g>
      <g
         id="g196"
         transform="matrix(0.35277777,0,0,-0.35277777,-150.00374,252.13895)">
        <g
           id="g198">
          <g
             id="g204">
            <g
               id="g206">
              <path
                 d="m 685.593,302.594 c 5.22,-1.774 24.731,-8.183 32.309,-10.649 v 0 c 0.077,0.462 0.178,0.91 0.3,1.341 v 0 c -8.521,4.303 -26.244,13.179 -30.714,15.444 v 0 c -0.771,-1.938 -1.406,-3.985 -1.895,-6.136"
                 style="fill:url(#linearGradient214);stroke:none"
                 id="path216" />
            </g>
          </g>
        </g>
      </g>
      <g
         id="g218"
         transform="matrix(0.35277777,0,0,-0.35277777,-150.00374,252.13895)">
        <g
           id="g220">
          <g
             id="g226">
            <g
               id="g228">
              <path
                 d="m 730.032,300.742 c 0.417,-0.056 0.826,-0.138 1.229,-0.242 v 0 l 1.02,29.997 c -1.788,0.455 -3.616,0.781 -5.479,0.966 v 0 z"
                 style="fill:url(#linearGradient236);stroke:none"
                 id="path238" />
            </g>
          </g>
        </g>
      </g>
      <g
         id="g240"
         transform="matrix(0.35277777,0,0,-0.35277777,-150.00374,252.13895)">
        <g
           id="g242">
          <g
             id="g248">
            <g
               id="g250">
              <path
                 d="m 740.596,288.397 c -0.008,-0.309 -0.027,-0.611 -0.054,-0.906 v 0 l 25.042,-1.138 c 0.054,1.068 0.071,2.159 0.055,3.271 v 0 c -0.01,0.715 -0.046,1.436 -0.105,2.157 v 0 z"
                 style="fill:url(#linearGradient258);stroke:none"
                 id="path260" />
            </g>
          </g>
        </g>
      </g>
      <g
         id="g262"
         transform="matrix(0.35277777,0,0,-0.35277777,-150.00374,252.13895)">
        <g
           id="g264">
          <g
             id="g270">
            <g
               id="g272">
              <path
                 d="m 713.043,330.438 12.839,-29.9 c 0.367,0.082 0.743,0.147 1.126,0.196 v 0 l -8.775,30.539 c -1.776,-0.177 -3.508,-0.456 -5.19,-0.835"
                 style="fill:url(#linearGradient280);stroke:none"
                 id="path282" />
            </g>
          </g>
        </g>
      </g>
      <g
         id="g284"
         transform="matrix(0.35277777,0,0,-0.35277777,-150.00374,252.13895)">
        <g
           id="g286">
          <g
             id="g292">
            <g
               id="g294">
              <path
                 d="m 739.914,292.452 c 0.125,-0.333 0.234,-0.67 0.327,-1.008 v 0 l 23.483,8.99 c -0.598,1.796 -1.327,3.577 -2.176,5.324 v 0 z"
                 style="fill:url(#linearGradient302);stroke:none"
                 id="path304" />
            </g>
          </g>
        </g>
      </g>
      <g
         id="g306"
         transform="matrix(0.35277777,0,0,-0.35277777,-150.00374,252.13895)">
        <g
           id="g308">
          <g
             id="g314">
            <g
               id="g316">
              <path
                 d="m 700.638,325.177 21.364,-26.355 c 0.301,0.216 0.616,0.417 0.942,0.601 v 0 l -17.578,28.422 c -1.653,-0.777 -3.233,-1.667 -4.728,-2.668"
                 style="fill:url(#linearGradient324);stroke:none"
                 id="path326" />
            </g>
          </g>
        </g>
      </g>
      <g
         id="g328"
         transform="matrix(0.35277777,0,0,-0.35277777,-150.00374,252.13895)">
        <g
           id="g330">
          <g
             id="g336">
            <g
               id="g338">
              <path
                 d="m 737.549,296.428 c 0.259,-0.302 0.504,-0.616 0.735,-0.937 v 0 l 18.187,18.462 c -1.193,1.557 -2.486,3.053 -3.869,4.469 v 0 z"
                 style="fill:url(#linearGradient346);stroke:none"
                 id="path348" />
            </g>
          </g>
        </g>
      </g>
      <g
         id="g350"
         transform="matrix(0.35277777,0,0,-0.35277777,-150.00374,252.13895)">
        <g
           id="g352">
          <g
             id="g358">
            <g
               id="g360">
              <path
                 d="m 690.496,314.69 c 5.981,-3.997 24.007,-15.409 28.974,-18.554 v 0 c 0.194,0.306 0.404,0.598 0.627,0.877 v 0 c -4.608,4.125 -20.691,18.31 -25.769,22.737 v 0 c -1.414,-1.549 -2.695,-3.237 -3.832,-5.06"
                 style="fill:url(#linearGradient368);stroke:none"
                 id="path370" />
            </g>
          </g>
        </g>
      </g>
      <g
         id="g372"
         transform="matrix(0.35277777,0,0,-0.35277777,-150.00374,252.13895)">
        <g
           id="g374"
           clip-path="url(#clipPath378)">
          <g
             id="g380"
             transform="translate(695.0667,263.4587)">
            <path
               d="M 0,0 C -0.767,0.904 -1.494,1.842 -2.179,2.812 -1.607,1.887 -0.823,0.926 0,0"
               style="fill:#000000;fill-opacity:1;fill-rule:nonzero;stroke:none"
               id="path382" />
          </g>
          <g
             id="g384"
             transform="translate(763.7399,275.2689)">
            <path
               d="m 0,0 c -16.152,-1.105 -45.958,15.242 -79.062,10.844 -0.387,2.762 -0.477,6.336 -0.312,8.649 C -40.596,16.293 -41.679,8.101 1.538,6.401 1.188,4.636 0.549,1.617 0,0"
               style="fill:#008850;fill-opacity:1;fill-rule:nonzero;stroke:none"
               id="path386" />
          </g>
        </g>
      </g>
      <g
         id="g400"
         transform="matrix(0.35277777,0,0,-0.35277777,-150.00374,252.13895)">
        <g
           id="g402"
           clip-path="url(#clipPath406)">
          <g
             id="g408"
             transform="translate(738.9113,276.3098)">
            <path
               d="m 0,0 c -21.213,1.619 -40.04,-0.36 -49.354,-5.045 l -0.054,0.095 c -1.038,1.911 -1.91,3.839 -2.634,5.824 -0.222,1.166 -0.579,2.452 -1.218,3.931 -0.129,0.503 -0.262,1.051 -0.351,1.446 C -34.467,9.92 -15.923,4.316 0,0"
               style="fill:#ffcb05;fill-opacity:1;fill-rule:nonzero;stroke:none"
               id="path410" />
          </g>
          <g
             id="g412"
             transform="translate(762.3414,271.9854)">
            <path
               d="m 0,0 c -7.552,-10.545 -43.052,-2.226 -61.054,-14.26 -1.008,0.759 -1.981,1.562 -2.916,2.405 -2.526,2.279 -4.777,4.859 -6.698,7.682 0.386,0.224 0.786,0.44 1.197,0.648 C -54.417,2.758 -28.055,1.46 0,0"
               style="fill:#952409;fill-opacity:1;fill-rule:nonzero;stroke:none"
               id="path414" />
          </g>
        </g>
      </g>
      <g
         id="g416"
         transform="matrix(0.35277777,0,0,-0.35277777,-150.00374,252.13895)">
        <g
           id="g418"
           clip-path="url(#clipPath422)">
          <g
             id="g424"
             transform="translate(683.6473,291.6754)">
            <path
               d="M 0,0 C 0.223,20.477 17.003,36.894 37.48,36.671 57.957,36.448 74.374,19.668 74.15,-0.809 73.927,-21.285 57.148,-37.702 36.671,-37.479 16.194,-37.255 -0.223,-20.476 0,0"
               style="fill:#b50938;fill-opacity:1;fill-rule:nonzero;stroke:none"
               id="path426" />
          </g>
        </g>
      </g>
      <g
         id="g428"
         transform="matrix(0.35277777,0,0,-0.35277777,-150.00374,252.13895)">
        <g
           id="g430"
           clip-path="url(#clipPath434)">
          <g
             id="g436"
             transform="translate(726.8665,249.4341)">
            <path
               d="m 0,0 c -7.87,-0.111 -15.241,1.973 -21.566,5.675 9.388,7.641 45.114,5.52 53.834,10.808 C 25.096,5.873 12.906,0.208 0.08,0.001 Z"
               style="fill:#005ca6;fill-opacity:1;fill-rule:nonzero;stroke:none"
               id="path438" />
          </g>
        </g>
      </g>
      <g
         id="g440"
         transform="matrix(0.35277777,0,0,-0.35277777,-150.00374,252.13895)">
        <g
           id="g442"
           clip-path="url(#clipPath446)">
          <g
             id="g448"
             transform="translate(683.6473,291.6754)">
            <path
               d="M 0,0 C 0.223,20.477 17.003,36.894 37.48,36.671 57.957,36.448 74.374,19.668 74.15,-0.809 73.927,-21.285 57.148,-37.702 36.671,-37.479 16.194,-37.255 -0.223,-20.476 0,0"
               style="fill:#007dc1;fill-opacity:1;fill-rule:nonzero;stroke:none"
               id="path450" />
          </g>
        </g>
      </g>
    </g>
    <g
       id="g8573"
       transform="matrix(0.34431869,0,0,-0.34431869,-103.34941,213.43242)"
       style="stroke-width:1.02457">
      <g
         id="g8575"
         clip-path="url(#clipPath8579)"
         style="stroke-width:1.02457">
        <g
           id="g8581"
           transform="translate(678.7289,198.2323)"
           style="stroke-width:1.02457">
          <path
             d="m 0,0 h -6.483 l -2.821,-26.076 h 9.033 c 6.827,0 12.976,5.848 13.755,13.038 C 14.263,-5.846 9.378,0 2.551,0 Z m -3.493,-29.738 h -16.76 l 3.616,33.404 H 3.224 c 13.032,0 22.775,-7.47 21.775,-16.704 -0.998,-9.232 -12.358,-16.7 -25.391,-16.7 z m 56.263,8.906 H 31.257 l -6.344,-8.906 h -5.86 l 21.795,30.62 c 1.21,1.624 3.748,2.784 6.575,2.784 2.899,0 5.181,-1.207 5.966,-2.877 L 68.428,-29.738 H 57.257 Z m -18.91,3.665 h 17.102 l -7.029,14.058 z"
             style="fill:#005ca6;fill-opacity:1;fill-rule:nonzero;stroke:none;stroke-width:1.02457"
             id="path8583" />
        </g>
      </g>
    </g>
  </g>
</svg>
