<?xml version="1.0" encoding="utf-8"?>
<!-- Svg Vector Icons : http://www.onlinewebfonts.com/icon -->
<!DOCTYPE svg PUBLIC "-//W3C//DTD SVG 1.1//EN" "http://www.w3.org/Graphics/SVG/1.1/DTD/svg11.dtd">
<svg version="1.1" xmlns="http://www.w3.org/2000/svg" xmlns:xlink="http://www.w3.org/1999/xlink" x="0px" y="0px" viewBox="0 0 1000 1000" enable-background="new 0 0 1000 1000" xml:space="preserve">
<metadata> Svg Vector Icons : http://www.onlinewebfonts.com/icon </metadata>
<g><path d="M921.3,714.4c-140.1-112.6-179.4-57.2-242.9,6.3c-44.4,44.2-156.8-48.4-253.8-145.3C327.6,478.4,234.8,366,279.4,321.6C343,258,398.3,218.8,285.7,78.6C173.2-61.5,98.1,46.1,36.5,107.7c-71,71-3.8,336,258,597.8c261.9,261.7,526.8,329.1,597.8,258C953.8,902,1061.4,826.9,921.3,714.4z"/><path d="M547.6,428c14.9,14.9,39.2,14.9,54.2,0l115-115l115,115c14.9,14.9,39.2,14.9,54.2,0c14.9-14.9,14.9-39.2,0-54.2l-115.2-115l115-115c14.9-14.9,14.9-39.2,0-54.2c-14.9-14.9-39.2-14.9-54.2,0l-115,115l-115-115c-14.9-14.9-39.2-14.9-54.2,0c-14.9,14.9-14.9,39.2,0,54.2l115.2,115l-115,115C532.5,388.8,532.5,413.1,547.6,428z"/></g>
</svg>